<mxfile host="app.diagrams.net" modified="2021-02-22T14:52:44.408Z" agent="5.0 (Macintosh; Intel Mac OS X 10_15_6) AppleWebKit/605.1.15 (KHTML, like Gecko) Version/14.0.3 Safari/605.1.15" etag="6jZcnYttYg9SR__rOQ7q" version="14.4.2" type="github">
  <diagram id="R2lEEEUBdFMjLlhIrx00" name="Page-1">
    <mxGraphModel dx="1186" dy="795" grid="1" gridSize="10" guides="1" tooltips="1" connect="1" arrows="1" fold="1" page="1" pageScale="1" pageWidth="850" pageHeight="1100" math="0" shadow="0" extFonts="Permanent Marker^https://fonts.googleapis.com/css?family=Permanent+Marker">
      <root>
        <mxCell id="0" />
        <mxCell id="1" parent="0" />
        <mxCell id="v_IzPwPr-wBtTkI3hEKs-1" value="&lt;font style=&quot;font-size: 27px&quot;&gt;User&lt;/font&gt;" style="whiteSpace=wrap;html=1;" vertex="1" parent="1">
          <mxGeometry x="265" y="140" width="320" height="80" as="geometry" />
        </mxCell>
        <mxCell id="v_IzPwPr-wBtTkI3hEKs-6" value="&lt;blockquote style=&quot;margin: 0px 0px 0px 40px ; border: none ; padding: 0px ; font-size: 18px&quot;&gt;&lt;font style=&quot;font-size: 18px&quot;&gt;- id: int&lt;/font&gt;&lt;/blockquote&gt;&lt;blockquote style=&quot;margin: 0px 0px 0px 40px ; border: none ; padding: 0px ; font-size: 18px&quot;&gt;&lt;font style=&quot;font-size: 18px&quot;&gt;- name: string&lt;/font&gt;&lt;/blockquote&gt;&lt;blockquote style=&quot;margin: 0px 0px 0px 40px ; border: none ; padding: 0px ; font-size: 18px&quot;&gt;&lt;font style=&quot;font-size: 18px&quot;&gt;- login: string&lt;/font&gt;&lt;/blockquote&gt;&lt;blockquote style=&quot;margin: 0px 0px 0px 40px ; border: none ; padding: 0px ; font-size: 18px&quot;&gt;&lt;font style=&quot;font-size: 18px&quot;&gt;- passwordHash: string&lt;/font&gt;&lt;/blockquote&gt;&lt;blockquote style=&quot;margin: 0px 0px 0px 40px ; border: none ; padding: 0px ; font-size: 18px&quot;&gt;&lt;font style=&quot;font-size: 18px&quot;&gt;- role: Role&lt;/font&gt;&lt;/blockquote&gt;" style="whiteSpace=wrap;html=1;align=left;" vertex="1" parent="1">
          <mxGeometry x="265" y="220" width="320" height="120" as="geometry" />
        </mxCell>
        <mxCell id="v_IzPwPr-wBtTkI3hEKs-10" value="&lt;blockquote style=&quot;margin: 0px 0px 0px 40px ; border: none ; padding: 0px ; font-size: 18px&quot;&gt;&lt;font style=&quot;font-size: 18px&quot;&gt;+ getId(): int&lt;/font&gt;&lt;/blockquote&gt;&lt;blockquote style=&quot;margin: 0px 0px 0px 40px ; border: none ; padding: 0px ; font-size: 18px&quot;&gt;&lt;font style=&quot;font-size: 18px&quot;&gt;+ getName(): string&lt;/font&gt;&lt;/blockquote&gt;&lt;blockquote style=&quot;margin: 0px 0px 0px 40px ; border: none ; padding: 0px ; font-size: 18px&quot;&gt;&lt;font style=&quot;font-size: 18px&quot;&gt;+ getLogin(): string&lt;/font&gt;&lt;/blockquote&gt;&lt;blockquote style=&quot;margin: 0px 0px 0px 40px ; border: none ; padding: 0px ; font-size: 18px&quot;&gt;&lt;font style=&quot;font-size: 18px&quot;&gt;+ getPasswordHash(): string&lt;/font&gt;&lt;/blockquote&gt;&lt;blockquote style=&quot;margin: 0px 0px 0px 40px ; border: none ; padding: 0px ; font-size: 18px&quot;&gt;&lt;font style=&quot;font-size: 18px&quot;&gt;+ getRole(): Role&lt;/font&gt;&lt;/blockquote&gt;" style="whiteSpace=wrap;html=1;align=left;" vertex="1" parent="1">
          <mxGeometry x="265" y="340" width="320" height="120" as="geometry" />
        </mxCell>
      </root>
    </mxGraphModel>
  </diagram>
</mxfile>
